<?xml version="1.0" encoding="UTF-8"?>
<svg width="1112px" height="456px" viewBox="0 0 1112 456" version="1.1" xmlns="http://www.w3.org/2000/svg" xmlns:xlink="http://www.w3.org/1999/xlink">
    <!-- Generator: Sketch 52.3 (67297) - http://www.bohemiancoding.com/sketch -->
    <title>Group</title>
    <desc>Created with Sketch.</desc>
    <g id="Page-1" stroke="none" stroke-width="1" fill="none" fill-rule="evenodd">
        <g id="Group">
            <rect id="Rectangle" fill="#FEFEFE" fill-rule="nonzero" x="0" y="0" width="1112" height="456"></rect>
            <g id="lgo" transform="translate(459.000000, 132.000000)">
                <text id="¿Y-tú-qué-devoras?" font-family="Montserrat-Medium, Montserrat" font-size="30" font-weight="400" letter-spacing="0.900000036" fill="#262626">
                    <tspan x="0.710526316" y="184">¿Y tú qué devoras?</tspan>
                </text>
                <g id="pac" transform="translate(20.000000, 0.000000)" fill="#010202" fill-rule="nonzero">
                    <path d="M0.0994857834,55.1870968 C0.29845735,54.3741935 0.497428917,53.6516129 0.596914701,52.8387097 C1.1938294,47.6 2.68611615,42.6322581 4.67583182,37.7548387 C6.86451906,32.4258065 9.84909256,27.4580645 13.7290381,22.9419355 C16.0172111,20.3225806 18.4048699,17.883871 20.9915003,15.5354839 C24.2745312,12.5548387 27.9555051,10.116129 31.9349365,7.9483871 C37.1081972,5.1483871 42.7788869,3.07096774 48.6485481,1.89677419 C51.3346642,1.35483871 54.1202662,1.08387097 56.8063823,0.812903226 C58.8955838,0.541935484 60.9847852,0.361290323 63.0739867,0.451612903 C65.7601028,0.541935484 68.446219,0.722580645 71.0328494,1.08387097 C74.0174229,1.53548387 77.1014822,1.98709677 79.9865699,2.70967742 C86.4531458,4.24516129 92.2233212,7.13548387 97.2970962,10.9290323 C100.679613,13.4580645 103.763672,16.3483871 106.947217,19.2387097 C109.434362,21.4967742 111.722535,23.9354839 114.110194,26.3741935 C115.005566,27.1870968 114.806594,28 113.513279,28.4516129 C110.727677,29.6258065 107.842589,30.6193548 104.957502,31.7935484 C99.0878403,34.3225806 93.5166364,37.3935484 88.1444041,40.7354839 C81.9762855,44.6193548 75.9076528,48.683871 69.83902,52.5677419 C68.446219,53.4709677 66.8544465,54.1935484 65.2626739,55.0967742 C69.0431337,57.3548387 72.6246219,59.6129032 76.5045675,61.6 C83.4685723,65.3032258 90.4325771,68.7354839 97.4960678,72.3483871 C101.177042,74.2451613 104.858016,76.2322581 108.936933,77.316129 C109.931791,77.5870968 110.926649,77.6774194 111.822021,77.9483871 C114.010708,78.4 115.005566,79.8451613 114.707108,81.7419355 C114.110194,85.8064516 112.020992,89.2387097 108.638475,91.8580645 C103.564701,95.9225806 98.291954,99.8064516 92.4222928,102.877419 C86.1546884,106.129032 79.5886267,108.387097 72.6246219,109.832258 C68.1477616,110.735484 63.6709014,111.367742 59.0945554,111.096774 C55.4135814,110.916129 51.8320932,110.012903 48.3500907,108.929032 C40.6896854,106.4 33.3277374,103.329032 26.7616757,99.083871 C22.2848155,96.1935484 18.4048699,92.8516129 14.8233817,89.1483871 C11.3413793,85.6258065 8.35680581,81.8322581 5.67068966,77.8580645 C2.9845735,73.9741935 1.09434362,69.7290323 0.29845735,65.1225806 C0.198971567,64.6709677 0.0994857834,64.2193548 2.84217094e-14,63.7677419 C0.0994857834,60.9677419 0.0994857834,58.0774194 0.0994857834,55.1870968 Z M107.34516,27.0967742 C106.350302,26.0129032 105.355445,24.9290323 104.360587,23.8451613 C101.276528,20.8645161 98.1924682,17.883871 95.0089232,14.9935484 C93.6161222,13.7290323 92.0243497,12.6451613 90.5320629,11.6516129 C86.0552027,8.76129032 81.0809135,6.77419355 75.9076528,5.50967742 C72.127193,4.60645161 68.2472474,4.06451613 64.4667877,3.79354839 C60.188899,3.43225806 55.8115245,3.79354839 51.5336358,4.60645161 C47.3552329,5.32903226 43.2763158,6.41290323 39.3963702,8.12903226 C35.0189958,10.0258065 30.9400786,12.283871 27.2591047,15.2645161 C23.7771022,17.9741935 20.693043,21.0451613 18.1064126,24.3870968 C13.9280097,29.716129 10.8439504,35.5870968 8.75474894,41.8193548 C7.16297641,46.6064516 6.16811857,51.5741935 5.86966122,56.5419355 C5.77017544,59.2516129 5.96914701,62.0516129 6.56606171,64.6709677 C7.66040532,69.8193548 9.94857834,74.6967742 13.0326376,79.1225806 C15.5197822,82.6451613 18.4048699,85.8064516 21.588415,88.7870968 C23.2796733,90.4129032 25.269389,91.7677419 27.1596189,93.3032258 C30.7411071,96.1032258 34.6210526,98.4516129 38.8989413,100.43871 C42.7788869,102.245161 46.6588324,103.870968 50.7377495,105.316129 C55.115124,106.941935 59.5919843,108.116129 64.4667877,107.664516 C67.3518754,107.393548 70.2369631,107.122581 73.022565,106.580645 C78.991712,105.225806 84.8613733,103.509677 90.034634,100.529032 C93.5166364,98.4516129 96.9986388,96.283871 100.182184,93.9354839 C102.470357,92.3096774 104.460073,90.3225806 106.449788,88.2451613 C107.444646,87.1612903 108.141047,85.716129 108.638475,84.3612903 C109.334876,82.3741935 108.936933,81.8322581 106.847731,80.9290323 C101.475499,78.6709677 96.1032668,76.4129032 90.8305203,74.0645161 C87.0500605,72.3483871 83.1701149,70.5419355 79.5886267,68.5548387 C72.6246219,64.6709677 65.8595886,60.6064516 58.8955838,56.6322581 C58.0002117,56.0903226 58.0002117,55.5483871 58.4976407,54.916129 C58.796098,54.5548387 59.1940411,54.283871 59.6914701,54.0129032 C61.1837568,53.2903226 62.8750151,52.6580645 64.2678161,51.8451613 C69.6400484,48.5935484 74.9127949,45.2516129 80.1855414,41.8193548 C86.5526316,37.5741935 93.2181791,33.6903226 100.182184,30.3483871 C102.470357,29.083871 104.957502,28.1806452 107.34516,27.0967742 Z" id="XMLID_1_"></path>
                </g>
                <g id="home-(1)" transform="translate(146.500000, 1.000000)" fill="#010202">
                    <path d="M23.1916667,109.3 C23.0807018,108.9 22.8587719,108.2 22.9697368,108.1 C24.3013158,107.2 23.7464912,105.9 23.7464912,104.7 C23.7464912,104.3 23.5245614,103.8 23.5245614,103.3 C23.5245614,100.4 23.5245614,97.4 23.5245614,94.5 C23.5245614,89.2 23.4135965,83.9 23.7464912,78.7 C24.6342105,67.1 24.1903509,55.5 24.3013158,43.9 C24.3013158,42.9 24.8561404,42 25.9657895,41.8 C26.7425439,41.6 27.7412281,41.5 28.5179825,41.6 C29.5166667,41.7 29.9605263,42.4 29.9605263,43.3 C29.9605263,46.5 29.9605263,49.8 29.9605263,53 C29.8495614,61.9 29.8495614,70.8 29.7385965,79.7 C29.7385965,85.3 29.7385965,90.9 29.7385965,96.5 C29.7385965,99.4 29.6276316,102.2 29.5166667,105.1 C29.5166667,105.5 29.5166667,105.8 29.5166667,106.3 C30.6263158,106.3 31.625,106.3 32.6236842,106.3 C33.9552632,106.3 35.2868421,106.3 36.6184211,106.3 C44.1640351,106.2 51.5986842,106.2 59.1442982,106.1 C60.1429825,106.1 60.4758772,105.8 60.4758772,104.9 C60.3649123,102.1 60.4758772,99.2 60.4758772,96.4 C60.3649123,92.9 60.2539474,89.4 60.0320175,86 C59.9210526,83.2 59.5881579,80.3 59.3662281,77.5 C59.2552632,76.3 59.1442982,75.1 58.9223684,73.9 C58.9223684,73.7 58.7004386,73.5 58.5894737,73.4 C57.7017544,73 57.3688596,72.3 57.7017544,71.6 C58.0346491,71 58.5894737,70.4 59.2552632,70 C59.5881579,69.7 60.2539474,69.7 60.8087719,69.7 C67.022807,69.6 73.2368421,69.6 79.4508772,69.5 C81.1153509,69.5 82.7798246,69.3 84.4442982,69.3 C86.3307018,69.3 86.8855263,70.3 86.6635965,71.8 C86.4416667,73.3 86.6635965,74.8 86.6635965,76.4 C86.6635965,76.6 86.7745614,76.8 86.7745614,77 C86.8855263,79 86.8855263,81.1 86.9964912,83.1 C87.1074561,86 87.329386,88.9 87.4403509,91.8 C87.5513158,94.6 87.7732456,97.5 87.8842105,100.3 C87.9951754,102 88.1061404,103.7 88.2171053,105.6 C90.3254386,105.5 92.322807,105.4 94.3201754,105.3 C95.5407895,105.3 96.7614035,105.3 97.9820175,105.3 C101.865789,105.2 105.749561,105.2 109.744298,105.1 C110.964912,105.1 112.296491,104.9 113.517105,104.9 C115.403509,104.9 117.178947,104.9 119.176316,104.9 C119.176316,104.3 119.176316,103.9 119.176316,103.6 C119.287281,98.1 119.287281,92.5 119.398246,87 C119.398246,83.9 119.509211,80.8 119.620175,77.7 C119.73114,74.3 119.842105,70.9 119.842105,67.4 C119.95307,59.9 119.95307,52.4 120.064035,44.8 C120.064035,42.8 120.175,42.6 122.394298,42.2 C123.392982,42 124.391667,42 125.501316,41.8 C125.501316,42.4 125.501316,42.8 125.501316,43.2 C125.501316,48 125.501316,52.7 125.501316,57.5 C125.501316,63.8 125.390351,70.1 125.279386,76.4 C125.279386,79.6 125.168421,82.7 125.057456,85.9 C124.946491,89.6 124.946491,93.2 124.835526,96.9 C124.835526,99.4 124.835526,101.9 124.835526,104.5 C124.946491,104.5 125.279386,104.6 125.501316,104.8 C125.945175,105.1 126.5,105.4 126.5,105.8 C126.5,106.3 126.167105,106.9 125.723246,107.1 C125.168421,107.4 124.502632,107.6 123.836842,107.7 C122.505263,107.8 121.173684,107.9 119.95307,107.9 C115.403509,108 110.853947,108 106.304386,108.1 C103.641228,108.1 100.97807,108.2 98.3149123,108.3 C95.3188596,108.4 92.4337719,108.4 89.4377193,108.5 C85.997807,108.6 82.6688596,108.6 79.2289474,108.7 C75.3451754,108.8 71.5723684,108.8 67.6885965,108.9 C62.5842105,109 57.4798246,109 52.3754386,109.1 C52.1535088,109.1 51.820614,109.2 51.5986842,109.3 C42.2776316,109.3 32.7346491,109.3 23.1916667,109.3 Z M82.8907895,105.8 C82.7798246,105.4 82.6688596,105.1 82.6688596,104.8 C82.5578947,101.2 82.3359649,97.7 82.225,94.1 C82.1140351,91.3 81.8921053,88.5 81.7811404,85.7 C81.6701754,82.5 81.4482456,79.3 81.3372807,76.1 C81.3372807,75.2 81.1153509,74.3 81.004386,73.3 C80.5605263,73.3 80.1166667,73.3 79.7837719,73.3 C76.6767544,73.4 73.4587719,73.4 70.3517544,73.5 C68.4653509,73.5 66.6899123,73.6 64.6925439,73.6 C64.9144737,75.3 65.1364035,76.7 65.2473684,78.2 C65.4692982,81.3 65.6912281,84.5 65.9131579,87.6 C66.0241228,90.2 66.1350877,92.7 66.1350877,95.3 C66.1350877,98.5 66.1350877,101.8 66.1350877,105 C66.1350877,105.3 66.1350877,105.7 66.1350877,105.9 C71.7942982,105.8 77.3425439,105.8 82.8907895,105.8 Z" id="XMLID_5_" fill-rule="nonzero"></path>
                    <path d="M76.2328947,0.7 C76.4548246,0.8 76.6767544,1.1 77.120614,1.3 C78.452193,2.3 79.5618421,2.9 79.7837719,3.1 C84.777193,6.3 89.6596491,9.7 94.5421053,12.9 C98.8697368,15.8 103.197368,18.6 107.525,21.5 C111.963596,24.4 116.291228,27.4 120.729825,30.3 C125.612281,33.6 130.605702,36.8 135.488158,40.1 C137.929386,41.7 140.370614,43.4 142.700877,45 C142.700877,45.4 142.700877,45.8 142.700877,46.2 C140.925439,48.1 138.92807,48.2 136.486842,46.6 C130.050877,42.3 123.725877,38.1 117.289912,33.8 C110.853947,29.5 104.528947,25.2 98.0929825,20.9 C92.1008772,16.9 86.1087719,12.9 80.0057018,9 C78.2302632,7.8 76.4548246,6.7 74.679386,5.4 C74.2355263,5.1 73.9026316,5 73.4587719,5.4 C70.9065789,7.1 68.4653509,8.8 65.9131579,10.5 C61.1416667,13.7 56.3701754,16.8 51.5986842,20 C47.6039474,22.6 43.7201754,25.2 39.7254386,27.8 C34.5100877,31.2 29.2947368,34.6 23.9684211,38 C20.7504386,40.1 17.4214912,42.2 14.2035088,44.2 C11.9842105,45.6 9.65394737,47.1 7.32368421,48.4 C5.65921053,49.3 3.88377193,50.1 1.7754386,49.6 C1.44254386,49.5 1.10964912,49.3 0.887719298,49.1 C0.776754386,49 0.998684211,48.5 1.22061404,48.4 C2.33026316,47.6 3.43991228,46.9 4.5495614,46.2 C10.097807,42.6 15.6460526,39.1 21.1942982,35.5 C26.1877193,32.3 31.1811404,29.1 36.2855263,25.8 C36.9513158,25.4 37.5061404,25 38.0609649,24.6 C38.2828947,24.4 38.3938596,23.9 38.3938596,23.5 C38.2828947,21.8 38.0609649,20.1 37.95,18.4 C37.7280702,14.1 37.6171053,9.7 37.5061404,5.4 C37.5061404,3.6 38.5048246,2.6 40.6131579,2.6 C43.4982456,2.6 42.9434211,2.3 42.9434211,4.6 C43.054386,7.5 43.054386,10.3 43.1653509,13.2 C43.2763158,15.7 43.4982456,18.2 43.7201754,20.8 C45.1627193,19.8 46.6052632,18.9 48.047807,18 C52.3754386,15.1 56.7030702,12.2 61.1416667,9.3 C64.470614,7.1 67.9105263,4.8 71.2394737,2.6 C71.3504386,2.5 71.4614035,2.5 71.4614035,2.4 C72.2381579,1.8 72.9039474,1.2 73.6807018,0.5 C73.7916667,0.4 74.2355263,0.1 74.7903509,0.1 C75.6780702,0.3 76.1219298,0.6 76.2328947,0.7 Z" id="Path"></path>
                </g>
            </g>
        </g>
    </g>
</svg>