<?xml version="1.0" encoding="UTF-8"?>
<svg width="32px" height="32px" viewBox="0 0 32 32" version="1.1" xmlns="http://www.w3.org/2000/svg" xmlns:xlink="http://www.w3.org/1999/xlink">
    <!-- Generator: Sketch 52.3 (67297) - http://www.bohemiancoding.com/sketch -->
    <title>Artboard</title>
    <desc>Created with Sketch.</desc>
    <g id="Artboard" stroke="none" stroke-width="1" fill="none" fill-rule="evenodd">
        <g id="Group" transform="translate(2.000000, 10.000000)" fill="#010202">
            <g id="home-(1)" transform="translate(13.311475, 0.000000)">
                <path d="M2.54178422,12.9172727 C2.52962257,12.87 2.50529928,12.7872727 2.51746092,12.7754545 C2.66340069,12.6690909 2.60259245,12.5154545 2.60259245,12.3736364 C2.60259245,12.3263636 2.57826916,12.2672727 2.57826916,12.2081818 C2.57826916,11.8654545 2.57826916,11.5109091 2.57826916,11.1681818 C2.57826916,10.5418182 2.56610751,9.91545455 2.60259245,9.30090909 C2.69988563,7.93 2.65123904,6.55909091 2.66340069,5.18818182 C2.66340069,5.07 2.72420892,4.96363636 2.84582539,4.94 C2.93095692,4.91636364 3.04041174,4.90454545 3.12554327,4.91636364 C3.23499809,4.92818182 3.28364468,5.01090909 3.28364468,5.11727273 C3.28364468,5.49545455 3.28364468,5.88545455 3.28364468,6.26363636 C3.27148303,7.31545455 3.27148303,8.36727273 3.25932139,9.41909091 C3.25932139,10.0809091 3.25932139,10.7427273 3.25932139,11.4045455 C3.25932139,11.7472727 3.24715974,12.0781818 3.23499809,12.4209091 C3.23499809,12.4681818 3.23499809,12.5036364 3.23499809,12.5627273 C3.35661456,12.5627273 3.46606939,12.5627273 3.57552421,12.5627273 C3.72146397,12.5627273 3.86740374,12.5627273 4.0133435,12.5627273 C4.84033549,12.5509091 5.65516584,12.5509091 6.48215783,12.5390909 C6.59161266,12.5390909 6.6280976,12.5036364 6.6280976,12.3972727 C6.61593595,12.0663636 6.6280976,11.7236364 6.6280976,11.3927273 C6.61593595,10.9790909 6.6037743,10.5654545 6.57945101,10.1636364 C6.56728936,9.83272727 6.53080442,9.49 6.50648113,9.15909091 C6.49431948,9.01727273 6.48215783,8.87545455 6.45783454,8.73363636 C6.45783454,8.71 6.43351125,8.68636364 6.4213496,8.67454545 C6.32405642,8.62727273 6.28757148,8.54454545 6.32405642,8.46181818 C6.36054136,8.39090909 6.4213496,8.32 6.49431948,8.27272727 C6.53080442,8.23727273 6.6037743,8.23727273 6.66458254,8.23727273 C7.34563477,8.22545455 8.026687,8.22545455 8.70773923,8.21363636 C8.89016393,8.21363636 9.07258864,8.19 9.25501334,8.19 C9.46176134,8.19 9.52256958,8.30818182 9.49824628,8.48545455 C9.47392299,8.66272727 9.49824628,8.84 9.49824628,9.02909091 C9.49824628,9.05272727 9.51040793,9.07636364 9.51040793,9.1 C9.52256958,9.33636364 9.52256958,9.58454545 9.53473122,9.82090909 C9.54689287,10.1636364 9.57121616,10.5063636 9.58337781,10.8490909 C9.59553946,11.18 9.61986275,11.5227273 9.6320244,11.8536364 C9.64418605,12.0545455 9.65634769,12.2554545 9.66850934,12.48 C9.89958063,12.4681818 10.1184903,12.4563636 10.3373999,12.4445455 C10.471178,12.4445455 10.6049562,12.4445455 10.7387343,12.4445455 C11.1643919,12.4327273 11.5900496,12.4327273 12.0278689,12.4209091 C12.161647,12.4209091 12.3075867,12.3972727 12.4413648,12.3972727 C12.6481128,12.3972727 12.8426992,12.3972727 13.0616088,12.3972727 C13.0616088,12.3263636 13.0616088,12.2790909 13.0616088,12.2436364 C13.0737705,11.5936364 13.0737705,10.9318182 13.0859321,10.2818182 C13.0859321,9.91545455 13.0980938,9.54909091 13.1102554,9.18272727 C13.1224171,8.78090909 13.1345787,8.37909091 13.1345787,7.96545455 C13.1467404,7.07909091 13.1467404,6.19272727 13.158902,5.29454545 C13.158902,5.05818182 13.1710637,5.03454545 13.4142966,4.98727273 C13.5237514,4.96363636 13.6332063,4.96363636 13.7548227,4.94 C13.7548227,5.01090909 13.7548227,5.05818182 13.7548227,5.10545455 C13.7548227,5.67272727 13.7548227,6.22818182 13.7548227,6.79545455 C13.7548227,7.54 13.7426611,8.28454545 13.7304994,9.02909091 C13.7304994,9.40727273 13.7183378,9.77363636 13.7061761,10.1518182 C13.6940145,10.5890909 13.6940145,11.0145455 13.6818528,11.4518182 C13.6818528,11.7472727 13.6818528,12.0427273 13.6818528,12.35 C13.6940145,12.35 13.7304994,12.3618182 13.7548227,12.3854545 C13.8034693,12.4209091 13.8642775,12.4563636 13.8642775,12.5036364 C13.8642775,12.5627273 13.8277926,12.6336364 13.779146,12.6572727 C13.7183378,12.6927273 13.6453679,12.7163636 13.572398,12.7281818 C13.4264583,12.74 13.2805185,12.7518182 13.1467404,12.7518182 C12.6481128,12.7636364 12.1494853,12.7636364 11.6508578,12.7754545 C11.3589783,12.7754545 11.0670987,12.7872727 10.7752192,12.7990909 C10.4468547,12.8109091 10.1306519,12.8109091 9.80228746,12.8227273 C9.4252764,12.8345455 9.06042699,12.8345455 8.68341594,12.8463636 C8.25775829,12.8581818 7.8442623,12.8581818 7.41860465,12.87 C6.85916889,12.8818182 6.29973313,12.8818182 5.74029737,12.8936364 C5.71597408,12.8936364 5.67948913,12.9054545 5.65516584,12.9172727 C4.6335875,12.9172727 3.58768586,12.9172727 2.54178422,12.9172727 Z M9.08475029,12.5036364 C9.07258864,12.4563636 9.06042699,12.4209091 9.06042699,12.3854545 C9.04826535,11.96 9.02394205,11.5463636 9.0117804,11.1209091 C8.99961876,10.79 8.97529546,10.4590909 8.96313382,10.1281818 C8.95097217,9.75 8.92664888,9.37181818 8.91448723,8.99363636 C8.91448723,8.88727273 8.89016393,8.78090909 8.87800229,8.66272727 C8.8293557,8.66272727 8.78070911,8.66272727 8.74422417,8.66272727 C8.40369806,8.67454545 8.05101029,8.67454545 7.71048418,8.68636364 C7.50373618,8.68636364 7.30914983,8.69818182 7.09024018,8.69818182 C7.11456348,8.89909091 7.13888677,9.06454545 7.15104842,9.24181818 C7.17537171,9.60818182 7.19969501,9.98636364 7.2240183,10.3527273 C7.23617995,10.66 7.24834159,10.9554545 7.24834159,11.2627273 C7.24834159,11.6409091 7.24834159,12.0309091 7.24834159,12.4090909 C7.24834159,12.4445455 7.24834159,12.4918182 7.24834159,12.5154545 C7.86858559,12.5036364 8.47666794,12.5036364 9.08475029,12.5036364 Z" id="XMLID_5_" fill-rule="nonzero"></path>
                <path d="M8.35505147,0.0827272727 C8.37937476,0.0945454545 8.40369806,0.13 8.45234464,0.153636364 C8.59828441,0.271818182 8.71990088,0.342727273 8.74422417,0.366363636 C9.29149828,0.744545455 9.82661075,1.14636364 10.3617232,1.52454545 C10.8360274,1.86727273 11.3103317,2.19818182 11.7846359,2.54090909 C12.2711018,2.88363636 12.745406,3.23818182 13.2318719,3.58090909 C13.7669844,3.97090909 14.3142585,4.34909091 14.8493709,4.73909091 C15.1169272,4.92818182 15.3844834,5.12909091 15.639878,5.31818182 C15.639878,5.36545455 15.639878,5.41272727 15.639878,5.46 C15.4452917,5.68454545 15.226382,5.69636364 14.9588258,5.50727273 C14.2534502,4.99909091 13.5602364,4.50272727 12.8548608,3.99454545 C12.1494853,3.48636364 11.4562714,2.97818182 10.7508959,2.47 C10.094167,1.99727273 9.43743805,1.52454545 8.76854746,1.06363636 C8.57396111,0.921818182 8.37937476,0.791818182 8.18478841,0.638181818 C8.13614182,0.602727273 8.09965688,0.590909091 8.05101029,0.638181818 C7.77129241,0.839090909 7.50373618,1.04 7.2240183,1.24090909 C6.70106748,1.61909091 6.17811666,1.98545455 5.65516584,2.36363636 C5.21734655,2.67090909 4.79168891,2.97818182 4.35386961,3.28545455 C3.78227221,3.68727273 3.2106748,4.08909091 2.62691575,4.49090909 C2.27422798,4.73909091 1.90937857,4.98727273 1.55669081,5.22363636 C1.31345787,5.38909091 1.05806329,5.56636364 0.8026687,5.72 C0.620243995,5.82636364 0.425657644,5.92090909 0.194586352,5.86181818 C0.158101411,5.85 0.12161647,5.82636364 0.0972931758,5.80272727 C0.0851315288,5.79090909 0.109454823,5.73181818 0.133778117,5.72 C0.255394586,5.62545455 0.377011056,5.54272727 0.498627526,5.46 C1.10670987,5.03454545 1.71479222,4.62090909 2.32287457,4.19545455 C2.87014868,3.81727273 3.4174228,3.43909091 3.97685856,3.04909091 C4.04982844,3.00181818 4.11063668,2.95454545 4.17144491,2.90727273 C4.1957682,2.88363636 4.20792985,2.82454545 4.20792985,2.77727273 C4.1957682,2.57636364 4.17144491,2.37545455 4.15928326,2.17454545 C4.13495997,1.66636364 4.12279832,1.14636364 4.11063668,0.638181818 C4.11063668,0.425454545 4.2200915,0.307272727 4.45116279,0.307272727 C4.76736561,0.307272727 4.70655738,0.271818182 4.70655738,0.543636364 C4.71871902,0.886363636 4.71871902,1.21727273 4.73088067,1.56 C4.74304232,1.85545455 4.76736561,2.15090909 4.79168891,2.45818182 C4.94979032,2.34 5.10789173,2.23363636 5.26599314,2.12727273 C5.74029737,1.78454545 6.2146016,1.44181818 6.70106748,1.09909091 C7.06591689,0.839090909 7.44292795,0.567272727 7.80777735,0.307272727 C7.819939,0.295454545 7.83210065,0.295454545 7.83210065,0.283636364 C7.91723218,0.212727273 7.99020206,0.141818182 8.07533359,0.0590909091 C8.08749523,0.0472727273 8.13614182,0.0118181818 8.19695006,0.0118181818 C8.29424323,0.0354545455 8.34288982,0.0709090909 8.35505147,0.0827272727 Z" id="Path"></path>
            </g>
            <g id="pac" transform="translate(0.000000, 0.448276)" fill-rule="nonzero">
                <path d="M0.0106557377,6.18476085 C0.0319672131,6.09365962 0.0532786885,6.01268076 0.0639344262,5.92157953 C0.127868852,5.33448276 0.287704918,4.77775306 0.500819672,4.23114572 C0.735245902,3.63392659 1.05491803,3.07719689 1.4704918,2.57107898 C1.71557377,2.27753059 1.97131148,2.00422692 2.24836066,1.74104561 C2.6,1.40700779 2.9942623,1.13370412 3.4204918,0.890767519 C3.97459016,0.576974416 4.58196721,0.344160178 5.21065574,0.212569522 C5.49836066,0.151835373 5.79672131,0.121468298 6.08442623,0.0911012236 C6.30819672,0.0607341491 6.53196721,0.0404894327 6.7557377,0.0506117909 C7.04344262,0.0607341491 7.33114754,0.0809788654 7.60819672,0.121468298 C7.92786885,0.172080089 8.25819672,0.22269188 8.56721311,0.303670745 C9.25983607,0.475750834 9.87786885,0.799666296 10.4213115,1.22480534 C10.7836066,1.50823137 11.1139344,1.83214683 11.454918,2.15606229 C11.7213115,2.40912125 11.9663934,2.68242492 12.2221311,2.95572859 C12.3180328,3.04682981 12.2967213,3.13793103 12.1581967,3.18854283 C11.8598361,3.32013348 11.5508197,3.43147942 11.2418033,3.56307008 C10.6131148,3.84649611 10.0163934,4.19065628 9.44098361,4.56518354 C8.78032787,5.00044494 8.13032787,5.45595106 7.48032787,5.89121246 C7.33114754,5.99243604 7.16065574,6.07341491 6.99016393,6.17463849 C7.39508197,6.42769744 7.77868852,6.6807564 8.1942623,6.90344828 C8.94016393,7.31846496 9.68606557,7.70311457 10.442623,8.1080089 C10.8368852,8.32057842 11.2311475,8.5432703 11.6680328,8.6647386 C11.7745902,8.69510567 11.8811475,8.70522803 11.9770492,8.73559511 C12.2114754,8.7862069 12.3180328,8.94816463 12.2860656,9.16073415 C12.2221311,9.61624027 11.9983607,10.0008899 11.6360656,10.2944383 C11.092623,10.7499444 10.5278689,11.1852058 9.89918033,11.529366 C9.22786885,11.8937709 8.52459016,12.1468298 7.77868852,12.3087875 C7.29918033,12.4100111 6.81967213,12.4808676 6.3295082,12.4505006 C5.9352459,12.4302558 5.55163934,12.3290323 5.17868852,12.207564 C4.35819672,11.9241379 3.56967213,11.5799778 2.86639344,11.1042269 C2.38688525,10.7803115 1.97131148,10.4057842 1.58770492,9.99076752 C1.2147541,9.59599555 0.895081967,9.17085651 0.607377049,8.72547275 C0.319672131,8.29021135 0.117213115,7.81446051 0.0319672131,7.29822024 C0.0213114754,7.24760845 0.0106557377,7.19699666 3.55271368e-14,7.14638487 C0.0106557377,6.83259177 0.0106557377,6.50867631 0.0106557377,6.18476085 Z M11.497541,3.03670745 C11.3909836,2.91523915 11.2844262,2.79377086 11.1778689,2.67230256 C10.847541,2.33826474 10.5172131,2.00422692 10.1762295,1.68031146 C10.0270492,1.53859844 9.85655738,1.41713014 9.69672131,1.3057842 C9.21721311,0.981868743 8.68442623,0.759176863 8.13032787,0.617463849 C7.72540984,0.516240267 7.30983607,0.455506118 6.90491803,0.425139043 C6.44672131,0.384649611 5.97786885,0.425139043 5.51967213,0.516240267 C5.07213115,0.597219132 4.6352459,0.71868743 4.21967213,0.911012236 C3.75081967,1.12358176 3.31393443,1.37664071 2.91967213,1.71067853 C2.54672131,2.01434928 2.21639344,2.35850945 1.93934426,2.73303671 C1.49180328,3.33025584 1.16147541,3.98820912 0.937704918,4.68665184 C0.767213115,5.22313682 0.660655738,5.77986652 0.628688525,6.33659622 C0.618032787,6.64026696 0.639344262,6.95406007 0.703278689,7.24760845 C0.820491803,7.82458287 1.06557377,8.37119021 1.39590164,8.86718576 C1.66229508,9.26195773 1.97131148,9.61624027 2.31229508,9.95027809 C2.49344262,10.1324805 2.70655738,10.2843159 2.90901639,10.456396 C3.29262295,10.7701891 3.70819672,11.0333704 4.16639344,11.2560623 C4.58196721,11.4585095 4.99754098,11.6407119 5.43442623,11.8026696 C5.90327869,11.9848721 6.38278689,12.1164627 6.90491803,12.0658509 C7.21393443,12.0354839 7.52295082,12.0051168 7.82131148,11.9443826 C8.46065574,11.7925473 9.08934426,11.6002225 9.64344262,11.2661846 C10.0163934,11.0333704 10.3893443,10.7904338 10.7303279,10.5272525 C10.9754098,10.3450501 11.1885246,10.1223582 11.4016393,9.88954394 C11.5081967,9.76807564 11.5827869,9.60611791 11.6360656,9.45428254 C11.7106557,9.23159066 11.6680328,9.17085651 11.4442623,9.06963293 C10.8688525,8.81657397 10.2934426,8.56351502 9.72868852,8.3003337 C9.32377049,8.1080089 8.90819672,7.90556174 8.52459016,7.68286986 C7.77868852,7.24760845 7.05409836,6.79210234 6.30819672,6.34671858 C6.21229508,6.28598443 6.21229508,6.22525028 6.26557377,6.15439377 C6.29754098,6.11390434 6.34016393,6.08353726 6.39344262,6.05317019 C6.55327869,5.97219132 6.73442623,5.90133482 6.88360656,5.81023359 C7.45901639,5.4458287 8.02377049,5.07130145 8.58852459,4.68665184 C9.2704918,4.210901 9.98442623,3.7756396 10.7303279,3.40111235 C10.9754098,3.25939933 11.2418033,3.15817575 11.497541,3.03670745 Z" id="XMLID_1_"></path>
            </g>
        </g>
    </g>
</svg>